# xmcd
#
# Track frame offsets:
#	150
#	9781
#	21587
#	35569
#	48590
#	66510
#	78945
#	90431
#	104401
#	114014
#	127577
#	141341
#	153383
#	166962
#	178686
#	191472
#	203893
#	215618
#	228269
#	239823
#	253516
#	266904
#
# Disc length: 3681 seconds
#
# Revision: 1
# Processed by: cddbd v1.5.2PL0 Copyright (c) Steve Scherf et al.
# Submitted via: audiograbber 1.83.01
#
DISCID=2f0e5f16
DTITLE=The Greatest Country Music Recordings Of All Time - Record 13 and 14
DYEAR=1900
DGENRE=Bluegrass
TTITLE0=Bill Monroe - Blue Moon Of Kentucky
TTITLE1=Osborne Brothers - Rocky Top
TTITLE2=Stanley Brothers - Rank Stranger
TTITLE3=Mac Wiseman - I Wonder How The Old Folks Are At Home
TTITLE4=Doc Watson with The Nitty Gritty Dirt Band - Tennessee Stud
TTITLE5=Bill Monroe - Uncle Pen
TTITLE6=Bill Monroe - New Muleskinner Blues
TTITLE7=Bluegrass Cardinals - Blue Eyed Boston Boy
TTITLE8=Stanley Brothers - How Mountain Girls Can Love
TTITLE9=Country Gentlemen - Bringing Mary Home
TTITLE10=Bill Monroe - Little Cabin Home On The Hill
TTITLE11=Lilly Brothers - John Henry
TTITLE12=Hot Rize - Nelly Kane
TTITLE13=Stanley Brothers - The Fields Have Turned Brown
TTITLE14=J. D. Crowe - Old Home Place
TTITLE15=Bill Monroe - Footprints In The Snow
TTITLE16=Stoneman Family - Orange Blossom Special
TTITLE17=Bill Monroe - Molly And Tenbrooks
TTITLE18=Lonesome Pine Fiddlers - Windy Mountain
TTITLE19=Charles River Valley Boys - Norwegian Wood
TTITLE20=Jim Eanes - Log Cabin In The Lane
TTITLE21=Lester Flatt - Pick Away
EXTD=
EXTT0=
EXTT1=
EXTT2=
EXTT3=
EXTT4=
EXTT5=
EXTT6=
EXTT7=
EXTT8=
EXTT9=
EXTT10=
EXTT11=
EXTT12=
EXTT13=
EXTT14=
EXTT15=
EXTT16=
EXTT17=
EXTT18=
EXTT19=
EXTT20=
EXTT21=
PLAYORDER=
